<?xml version="1.0" encoding="UTF-8"?>
<!-- Generator: Adobe Illustrator 25.2.1, SVG Export Plug-In . SVG Version: 6.00 Build 0)  -->
<svg xmlns="http://www.w3.org/2000/svg" xmlns:xlink="http://www.w3.org/1999/xlink" version="1.1" id="Capa_1" x="0px" y="0px" viewBox="0 0 512 512" style="enable-background:new 0 0 512 512;" xml:space="preserve" width="512" height="512">
<g>
	<path style="fill:#FEFFFF;" d="M359.807,487.215c-7.887,0-13.603-1.404-17.989-4.419c-9.94-6.834-13.851-16.109-15.179-20.282   c-0.8-1.662-2.339-4.94-4.033-8.983l-48.48-8.986c-3.927-0.727-7.343-3.129-9.358-6.575c-1.157-1.979-1.787-4.191-1.87-6.43   l-78.095-0.215c-0.191,0-0.381-0.005-0.571-0.014H22.411c-7.493,0-13.605-6.002-13.738-13.494   c-0.097-5.477-0.261-11.989-0.726-18.77c-1.978-26.863-1.406-49.824,1.756-70.131c2.985-19.253,8.446-36.417,16.26-51.126   c-1.403-3.545-2.531-6.582-3.38-8.952c-2.049-3.874-11.229-21.986-13.768-39.949c-4.017-4.824-9.315-13.134-8.777-22.943   c0.208-3.784,1.335-8.724,4.965-13.528c0.028-4.71,1.104-10.536,5.048-15.789c2.484-3.308,6.658-7.065,13.446-8.964   c1.194-2.708,2.92-5.501,5.405-8.031c2.469-2.514,6.317-5.367,11.868-6.819c1.073-2.605,2.615-5.231,4.827-7.537   c4.09-4.265,9.708-6.613,15.818-6.613c0.12,0,0.24,0,0.361,0.002l18.822-56.274c0.716-3.064,2.465-5.839,5.022-7.796   c2.442-1.87,5.401-2.854,8.393-2.854c1.502,0,3.011,0.248,4.469,0.756l26.024,9.028l0.718,0.239   c0.614,0.206,1.209,0.454,1.781,0.74c0.346-3.589,0.994-7.069,1.938-10.299c2.61-9.057,7.443-17.334,13.961-23.882   c10.934-10.987,27.133-17.29,44.442-17.29l1.125,0.009c10.996,0.172,22.298,2.686,34.324,7.651   c10.924-8.838,25.174-13.913,39.839-13.913c2.827,0,5.667,0.192,8.443,0.568c7.786,1.076,14.864,3.52,21.359,6.002   c0.853,0.327,1.706,0.657,2.56,0.995c2.125-0.076,4.249-0.114,6.348-0.114c14.406,0,28.512,1.778,41.926,5.287   c3.15,0.819,6.34,1.756,9.463,2.78c42.777,14.047,81.296,45.998,108.466,89.968c14.444,23.341,25.941,50.37,34.17,80.324   c5.45,19.846,9.574,41.398,12.258,64.062c5.499,46.237,4.779,92.251,3.368,143.294c-0.206,7.438-6.295,13.36-13.736,13.36h-59.824   c0.412,8.087,0.322,17.274-1.357,23.988C430.586,477.268,375.713,487.215,359.807,487.215z"/>
	<g>
		<path style="fill:#7B87FF;" d="M497.255,417.571H22.41c-0.115-6.458-0.298-12.801-0.756-19.466    c-1.626-22.076-1.786-45.16,1.626-67.076c3.71-23.931,11.679-46.465,26.725-64.74c9.412-11.473,21.16-20.611,30.847-31.832    c16.122-18.756,25.809-42.458,37.786-64.351c22.122-40.557,53.359-76.282,92.244-98.954    c38.908-22.695,85.74-31.626,128.908-20.336c2.908,0.756,5.794,1.603,8.656,2.542l87.143,71.419l46.528,89.458    c5.565,20.267,9.389,41.152,11.863,62.038C499.545,323.083,498.561,370.418,497.255,417.571z"/>
		<path style="fill:#FFE2B5;" d="M482.118,214.236c-7.511-8.931-14.817-18.16-24.847-23.931    c-33.298-19.214-81.755,6.71-111.526-17.565c-13.076-10.672-18.252-28.397-19.099-45.229    c-1.076-21.939,4.351-44.038,14.977-63.206c2.267-4.122,4.534-7.74,6.824-10.947c41.702,13.695,77.175,45.481,101.061,84.137    C464.118,161.106,474.675,187.144,482.118,214.236z"/>
		<g>
			<path style="fill:#F590AE;" d="M401.755,418.18l-216.915-0.595l-2.932-25.718c0,0-22.992,0.779-70.168-23.015     c-6.343-3.183-12.275-7.236-17.839-11.885c-40.397-33.71-60.504-98.999-60.504-98.999l62.267-25.145     c0,0,0.595,19.58,33.618,51.458c1.145,1.099,2.336,2.153,3.595,3.114c34.214,27.091,105.16,11.702,105.16,11.702l59.633-4.695     c0,0,57.71,16.168,77.771,39.573C399.992,362.623,401.755,418.18,401.755,418.18z"/>
			<g>
				<path style="fill:#FFB6F1;" d="M401.755,418.18l-216.915-0.595l-2.932-25.718c0,0-22.992,0.779-70.168-23.015      c-6.343-3.183-12.275-7.236-17.839-11.885c13.717-22.763,26.702-45.962,38.977-69.572      c34.214,27.091,105.16,11.702,105.16,11.702l59.633-4.695c0,0,57.71,16.168,77.771,39.573      C399.992,362.623,401.755,418.18,401.755,418.18z"/>
				<g>
					<path style="fill:#F590AE;" d="M297.672,274.524v19.878c0,0-8.313,18.321-28.901,18.321c-20.611,0-30.732-13.626-30.732-13.626       l1.145-11.198l0.641-6.367l0.389-3.893l6.847-0.366l50.381-2.725L297.672,274.524z"/>
					<path style="fill:#4C226C;" d="M297.672,274.685c-0.069-0.069-0.137-0.115-0.229-0.137l-50.381,2.725       c-2.473,1.282-4.901,2.702-7.237,4.26l-0.641,6.366c2.29,2.496,5.634,4.214,8.794,5.611c3.412,1.489,6.87,2.863,10.466,3.756       c13.74,3.435,29.015-0.939,39.229-10.626V274.685z"/>
				</g>
			</g>
			<g>
				<path style="fill:#5D3080;" d="M395.801,162.334c-0.412,2.244-0.985,4.466-1.695,6.641c-0.275,0.87-0.595,1.74-0.939,2.61      c-2.863,7.535-7.374,14.428-13.168,20.015c-2.084-3.206-4.168-6.435-6.206-9.687c-9.962-15.779-19.557-32.107-28.763-48.641      c-0.16-0.252-0.32-0.526-0.435-0.801c-5.221-9.343-10.305-18.756-15.252-28.145c-0.183-0.389-0.412-0.801-0.619-1.191      c-2.519-4.832-5.038-9.664-7.488-14.473c-0.733-1.397-1.443-2.817-2.153-4.214c-0.115-0.206-0.206-0.412-0.321-0.618      c-0.183-0.389-0.389-0.755-0.573-1.145c-0.069-0.115-0.115-0.229-0.183-0.343c3.893-0.573,7.855-0.641,11.771-0.252      c0.573,0.046,1.168,0.115,1.74,0.206c0.733,0.092,1.488,0.206,2.221,0.344c0.023,0,0.023,0.023,0.046,0.023      c7.168,1.282,14.038,4.145,19.946,8.405c10.213,7.328,17.381,18.733,19.603,31.122c8.244,1.214,16.397,8.176,19.992,15.687      C396.9,145.387,397.336,154.135,395.801,162.334z"/>
				<g>
					<g>
						<path style="fill:#F590AE;" d="M168.764,229.019c-0.55,0.092-1.099,0.16-1.649,0.229c-0.366,0.046-0.71,0.069-1.053,0.115        c-9.343,0.962-19.008-0.137-27.298-4.489c-9.092-4.786-16.237-13.855-17.084-24.069c-0.847-9.939,4.672-20.13,13.443-24.893        c5.313-2.885,11.656-3.664,17.565-2.473c0.206,0.023,0.389,0.069,0.573,0.115c0.183,0.023,0.366,0.069,0.527,0.115        c0.55,0.137,1.076,0.275,1.603,0.458c2.198,0.664,4.282,1.649,6.206,2.885c0.183,0.115,0.366,0.229,0.527,0.389        c0.412,0.229,0.802,0.527,1.191,0.824c0.183,0.962,0.366,1.924,0.527,2.908c2.13,12.275,3,25.855,4.053,38.588        C168.168,222.881,168.443,225.996,168.764,229.019z"/>
						<path style="fill:#4C226C;" d="M164.267,213.71c-0.29,0-0.577-0.125-0.774-0.368c-5.99-7.39-14.223-16.083-24.804-17.718        c-0.542-0.084-0.915-0.592-0.831-1.135c0.083-0.542,0.585-0.921,1.135-0.831c11.252,1.739,19.829,10.764,26.045,18.431        c0.346,0.427,0.28,1.053-0.146,1.399C164.707,213.637,164.486,213.71,164.267,213.71z"/>
					</g>
					<g>
						<path style="fill:#F590AE;" d="M405.85,198.103c-0.847,10.214-7.992,19.282-17.084,24.046        c-8.176,4.305-17.702,5.45-26.954,4.534c-0.298-0.023-0.618-0.046-0.939-0.092c-0.71-0.069-1.397-0.16-2.107-0.275        c0.321-3.069,0.595-6.206,0.847-9.412c0.893-10.511,1.649-21.572,3.069-32.015c0.435-3.183,0.939-6.321,1.534-9.366        c0.641-0.504,1.328-0.985,2.015-1.397c0.504-0.321,1.031-0.641,1.557-0.893c1.076-0.573,2.176-1.053,3.298-1.443        c0.023-0.046,0.069-0.046,0.092-0.023c0.344-0.16,0.687-0.275,1.031-0.366c0.595-0.183,1.191-0.366,1.809-0.504        c6.137-1.42,12.824-0.71,18.389,2.313C401.178,177.95,406.698,188.141,405.85,198.103z"/>
						<path style="fill:#4C226C;" d="M363.265,211.003c-0.219,0-0.441-0.073-0.625-0.221c-0.426-0.346-0.492-0.972-0.146-1.399        c6.215-7.667,14.792-16.692,26.045-18.431c0.54-0.092,1.051,0.288,1.135,0.831c0.084,0.543-0.288,1.051-0.831,1.135        c-10.583,1.635-18.815,10.328-24.804,17.718C363.842,210.877,363.555,211.003,363.265,211.003z"/>
					</g>
					<g>
						<path style="fill:#F590AE;" d="M371.431,180.24c0,5.405-0.389,10.695-1.168,15.893c-0.389,2.542-0.847,5.061-1.397,7.534        c-1.145,5.107-2.656,10.076-4.511,14.885c-0.206,0.527-0.412,1.031-0.618,1.534c-0.87,2.198-1.832,4.374-2.863,6.504        c0,0.046-0.023,0.069-0.046,0.115c-9.801,20.29-25.878,37.122-45.687,48.023c-0.458,0.252-0.916,0.504-1.374,0.733        c-0.664,0.366-1.351,0.71-2.038,1.053c-14.977,7.58-31.969,11.863-49.946,11.863c-16.832,0-32.771-3.756-47.015-10.42        c-0.756-0.366-1.489-0.733-2.244-1.099c-1.374-0.664-2.725-1.374-4.053-2.107c-19.03-10.443-34.557-26.313-44.473-45.504        c-0.435-0.802-0.847-1.603-1.237-2.427c-0.573-1.145-1.099-2.336-1.626-3.527c-0.206-0.481-0.412-0.962-0.618-1.443        c-2.153-5.084-3.939-10.351-5.267-15.801v-0.023c-1.603-6.366-2.611-12.962-2.977-19.717c-0.023-0.366-0.046-0.71-0.046-1.076        c-0.069-1.397-0.092-2.817-0.115-4.237v-0.756c0-1.901,0.046-3.802,0.137-5.679c0-0.137,0.023-0.298,0.023-0.435        c0.183-3.183,0.504-6.366,0.962-9.481c0-0.023,0-0.023,0-0.046c0.229-1.42,0.458-2.863,0.733-4.26v-0.023        c0.229-1.214,0.481-2.427,0.756-3.641c6.092-27.091,22.511-50.359,44.977-65.565c0.252-0.183,0.481-0.344,0.733-0.504        c5.336-3.55,10.992-6.664,16.924-9.252c0.206-0.092,0.412-0.183,0.618-0.275c13.42-5.771,28.214-8.977,43.809-8.977        c1.008,0,2.015,0.023,3,0.046c0.641,0,1.305,0.023,1.947,0.069c3.573,0.16,7.099,0.481,10.557,0.962        c2.863,0.412,5.702,0.916,8.496,1.557c0.069,0,0.16,0.023,0.229,0.046c1.053,0.229,2.107,0.481,3.16,0.756        c0.183,0.046,0.366,0.092,0.573,0.137c5.588,1.466,11.015,3.343,16.237,5.611c0.115,0.046,0.252,0.115,0.366,0.16        c0.252,0.115,0.458,0.206,0.687,0.321h0.023c13.717,6.114,25.924,14.977,35.908,25.832c0.252,0.252,0.458,0.481,0.71,0.733        v0.023c13.511,14.954,22.878,33.618,26.29,54.252c0.046,0.229,0.092,0.458,0.115,0.71c0.435,2.565,0.733,5.153,0.939,7.786        c0.046,0.206,0.069,0.412,0.069,0.618c0,0.023,0.023,0.046,0,0.069c0.092,1.053,0.16,2.13,0.206,3.206        c0.046,0.641,0.069,1.282,0.092,1.924C371.408,178.019,371.431,179.118,371.431,180.24z"/>
					</g>
					<path style="opacity:0.7;fill:#EF789F;" d="M155.596,187.215c13.448-2.854,20.947-11.027,28.65-22.414       c8.965-13.253,8.2-22.108,11.313-35.498c7.287,9.966,20.444,14.41,32.583,12.158c12.139-2.252,22.594-11.892,25.821-23.809       c1.991-7.352,1.914-16.223,7.938-20.885c2.254-1.745,5.063-2.588,7.829-3.274c15.369-3.809,31.389-3.822,47.223-3.814       c-5.618,2.752-9.753,6.826-11.834,12.726s-2.133,12.402-0.774,18.509c1.663,7.475,5.494,14.551,11.276,19.572       c5.782,5.022,13.562,7.855,21.185,7.121c0.542,10.008,5.255,20.801,12.17,28.056c6.915,7.255,12.694,11.408,22.665,12.428       c3.216-10.232,8.538-18.72,5.986-28.537c-2.552-9.817-7.845-18.698-13.669-27.003c-9.213-13.138-19.929-25.221-31.871-35.94       c-2.445-2.195-4.959-4.35-6.975-6.945c-1.818-2.339-3.195-4.991-4.954-7.376c-3.887-5.272-9.491-9.039-15.343-11.982       c-20.875-10.497-45.981-11.354-68.208-4.151c-22.228,7.203-41.585,22.063-55.949,40.492       C161.958,130.645,155.798,156.794,155.596,187.215z"/>
					<path style="fill:#FFE8F9;" d="M281.229,229.658c-7.625,2.463-15.418,4.407-23.307,5.815c1.572,3.821,4.47,7.532,8.531,8.299       c4.06,0.766,8.779,0.366,11.638-2.618C281.452,237.645,281.16,233.699,281.229,229.658z"/>
					<g>
						<g>
							<path style="fill:#EF789F;" d="M228.187,248.805c0,11.679-5.198,22.122-13.42,29.153c-0.756-0.366-1.489-0.733-2.244-1.099         c-1.374-0.664-2.725-1.374-4.053-2.107c-19.03-10.443-34.557-26.313-44.473-45.504c-0.366,0.046-0.71,0.069-1.053,0.115         c-0.069-0.115-0.137-0.229-0.183-0.344c-0.802-1.649-1.534-3.343-2.244-5.038c0.206-0.229,0.389-0.458,0.618-0.687         c1.122-1.282,2.336-2.473,3.641-3.573c6.71-5.794,15.481-9.298,25.03-9.298C211.012,210.423,228.187,227.599,228.187,248.805         z"/>
							<path style="fill:#EF789F;" d="M364.354,220.637c-0.779,2.038-1.603,4.053-2.542,6.046c-0.298-0.023-0.618-0.046-0.939-0.092         c0,0.046-0.023,0.069-0.046,0.115c-9.801,20.29-25.878,37.122-45.687,48.023c-0.458,0.252-0.916,0.504-1.374,0.733         c-0.664,0.366-1.351,0.71-2.038,1.053c-7.282-6.985-11.817-16.809-11.817-27.71c0-21.206,17.198-38.382,38.404-38.382         c7.878,0,15.229,2.382,21.298,6.481c1.443,0.962,2.84,2.038,4.122,3.183C363.942,220.271,364.148,220.454,364.354,220.637z"/>
						</g>
						<g>
							<g>
								<path style="fill:#EF789F;" d="M254.08,210.231c-1.747,4.906-1.215,11.006,2.667,14.48c6.594,5.9,19.576,3.547,22.8-5.019          c1.299-3.45,0.767-7.376-0.659-10.776c-2.175-5.183-7.368-14.473-14.296-11.914          C259.385,198.926,255.835,205.302,254.08,210.231z"/>
								<g>
									<g>
										<path style="fill:#4C226C;" d="M297.575,195.068c2.679,2.068,5.492,3.705,8.463,4.859c2.971,1.125,6.065,1.815,9.14,1.866            c3.073,0.116,6.2-0.404,9.228-1.366c3.029-0.991,5.928-2.472,8.715-4.391l0.086-0.059c1.21-0.833,2.867-0.528,3.7,0.683            c0.636,0.924,0.604,2.113,0.017,2.992c-2.32,3.454-5.703,6.199-9.52,8.035c-3.818,1.866-8.123,2.784-12.461,2.698            c-4.336-0.15-8.585-1.301-12.295-3.372c-3.711-2.042-6.939-4.967-9.068-8.542c-0.752-1.262-0.338-2.895,0.925-3.647            c0.964-0.574,2.143-0.468,2.982,0.175L297.575,195.068z"/>
									</g>
									<g>
										<path style="fill:#4C226C;" d="M238.289,197.382c-4.776,7.262-13.441,11.804-22.383,12.064            c-8.943,0.228-17.843-3.836-23.007-10.827c-0.908-1.23-0.648-2.963,0.582-3.872c1.017-0.751,2.377-0.703,3.332,0.031            l0.069,0.054c5.542,4.266,12.215,6.635,18.802,6.442c6.587-0.166,13.122-2.895,18.423-7.457l0.065-0.056            c1.159-0.997,2.907-0.866,3.904,0.293C238.899,195.014,238.95,196.376,238.289,197.382z"/>
									</g>
								</g>
							</g>
						</g>
					</g>
					<path style="fill:#5D3080;" d="M303.726,167.641c-1.851,2.268-2.82,5.636-0.463,7.551c1.336,1.086,3.328,1.339,5.183,1.51       c5.738,0.528,11.512,0.784,17.285,0.767c2.844-0.009,5.95-0.166,8.066-1.75c6.482-4.853-2.509-13.87-8.612-15.477       C317.887,158.322,307.765,162.691,303.726,167.641z"/>
					<path style="fill:#5D3080;" d="M230.505,167.641c1.851,2.268,2.82,5.636,0.463,7.551c-1.336,1.086-3.328,1.339-5.183,1.51       c-5.738,0.528-11.512,0.784-17.285,0.767c-2.844-0.009-5.95-0.166-8.067-1.75c-6.482-4.853,2.509-13.87,8.613-15.477       C216.345,158.322,226.466,162.691,230.505,167.641z"/>
				</g>
				<g>
					<path style="fill:#5D3080;" d="M379.519,160.181c-0.092,1.58-0.275,3.183-0.55,4.786l-0.412,2.061       c-1.214,5.542-3.321,11.061-5.267,16.237c-0.069,0.183-0.137,0.366-0.206,0.55c0,0.023-0.023,0.023-0.023,0.046       c-0.435-0.183-0.847-0.344-1.282-0.527c-0.55-0.206-1.099-0.435-1.649-0.664c-8.954-3.802-17.931-8.473-22.763-16.764       c-3.435-5.885-4.74-13.053-5.565-19.832c-6.55-2.473-13.076-5.359-18.527-9.756c-7.809-6.344-13.053-15.779-14.313-25.763       c-1.26-9.985,1.512-20.428,7.535-28.488c13.053,4.534,25.305,11.954,35.496,21.504c0.229,0.183,0.435,0.389,0.641,0.573       c6.985,6.641,13.008,14.29,17.611,22.671c0.137,0.206,0.252,0.412,0.367,0.641c2.084,3.87,3.893,7.9,5.336,12.046       C378.282,146.143,379.862,153.151,379.519,160.181z"/>
					<g style="opacity:0.36;">
						<path style="fill:#FFB6F1;" d="M373.29,183.265c-0.069,0.183-0.137,0.366-0.206,0.55c-0.435-0.161-0.87-0.321-1.305-0.481        c-0.55-0.206-1.099-0.435-1.649-0.664c-12-5.199-21.412-16.489-23.748-29.428c-0.115-0.641-0.229-1.305-0.321-1.969        c-0.481-3-0.962-6.114-2.794-8.45c-2.015-2.565-5.244-3.755-8.382-4.9c-0.664-0.229-1.328-0.481-1.969-0.733        c-10.924-4.282-18.961-13.328-21-23.588c-1.672-8.496,0.687-17.267,2.771-25.008l0.55,0.137        c-2.061,7.695-4.42,16.397-2.748,24.756c1.992,10.077,9.893,18.962,20.633,23.175c0.641,0.252,1.305,0.481,1.969,0.733        c3.206,1.168,6.504,2.382,8.611,5.061c1.946,2.473,2.427,5.656,2.908,8.725c0.115,0.664,0.206,1.328,0.344,1.969        C349.404,166.937,360.076,178.823,373.29,183.265z"/>
						<path style="fill:#FFB6F1;" d="M378.969,164.968l-0.412,2.061c-0.137-1.901-0.321-3.801-0.618-5.679        c-1.489-9.252-6.893-20.542-17.611-24.389c-2.359-0.847-4.901-1.305-7.351-1.718c-2.794-0.504-5.702-1.008-8.382-2.13        c-5.038-2.084-9.321-6.389-12.046-12.091c-2.198-4.58-3.435-10.077-3.779-16.809c-0.023-0.756-0.046-1.511-0.092-2.267        c-0.115-3.481-0.252-7.099-1.489-10.351c-1.351-3.641-4.809-7.42-9.206-7.191l-0.023-0.573c0.137,0,0.275-0.023,0.412-0.023        c4.466,0,7.969,3.87,9.366,7.58c1.26,3.343,1.397,7.008,1.512,10.534c0.023,0.756,0.068,1.511,0.092,2.267        c0.344,6.641,1.557,12.069,3.733,16.603c2.656,5.565,6.824,9.756,11.748,11.794c2.611,1.099,5.473,1.603,8.267,2.084        c2.474,0.435,5.038,0.87,7.443,1.74c10.947,3.939,16.466,15.412,17.977,24.847        C378.717,162.494,378.854,163.731,378.969,164.968z"/>
						<path style="fill:#FFB6F1;" d="M394.107,168.975c-0.275,0.87-0.595,1.74-0.939,2.61c1.077-7.305,1.122-13.374,0.137-18.916        c-1.397-7.878-5.015-14.656-10.191-19.099c-3.435-2.931-7.718-5.038-12.504-6.114c-0.733-0.16-1.466-0.298-2.222-0.412        c-0.641-0.115-1.282-0.183-1.946-0.275c-2.405-0.297-4.901-0.618-7.054-1.832c-4.74-2.633-6.275-8.473-6.756-12.939        c-0.137-1.351-0.229-2.748-0.298-4.122c-0.091-1.42-0.16-2.863-0.343-4.305c-0.229-2.107-0.619-4.214-1.42-6.183        c-3.046-7.58-10.97-11.657-19.053-15.092c-0.367-0.16-0.756-0.321-1.145-0.481l-0.962-0.39l-8.634-3.595l0.229-0.527        l7.97,3.321l1.603,0.664c1.054,0.435,2.107,0.893,3.16,1.351c0.023,0,0.023,0.023,0.046,0.023        c7.466,3.298,14.45,7.374,17.313,14.496c0.893,2.222,1.305,4.603,1.534,6.985c0.115,1.237,0.206,2.473,0.275,3.71        c0.069,1.351,0.16,2.748,0.298,4.099c0.458,4.306,1.947,9.985,6.458,12.481c2.061,1.145,4.512,1.466,6.87,1.763        c0.641,0.092,1.305,0.183,1.947,0.275c0.595,0.092,1.191,0.206,1.763,0.343c5.061,1.031,9.618,3.229,13.237,6.321        c5.29,4.511,8.977,11.427,10.397,19.42C394.748,157.479,394.816,162.792,394.107,168.975z"/>
					</g>
					<path style="fill:#5D3080;" d="M330.74,83.968c-6.068,3.069-12.114,5.748-17.908,9.298c-0.229,0-7.511-4.191-8.427-4.512       c-8.427-3.091-19.053-3.321-27.939-2.679c-7.122,0.526-14.519,2.885-19.168,8.313c-4.809,5.588-5.359,12.298-7.74,18.847       c-2.405,6.619-7.191,12.367-13.374,15.733c-18.023,9.802-28.97,0.092-43.901-8.794c1.03,5.656-0.435,16.465-4.535,26.702       c-3.504,8.771-6.504,14.13-12.71,21.183c-1.923,2.176-17.633,19.878-19.649,18.367c-2.542-1.901-5.198-4.626-7.832-7.855       c-0.137-0.16-0.275-0.344-0.389-0.504c-4.328-5.359-8.519-12.023-11.954-18.664c-0.091-0.183-0.183-0.366-0.275-0.527       c-3.664-7.145-6.458-14.267-7.557-19.717c-2.863-13.992,2.405-30.137,14.771-37.282c-0.275-0.962-0.504-1.969-0.71-2.977       c-0.046-0.252-0.115-0.526-0.137-0.801c-1.351-7.168-1.145-15.298,0.824-22.03c1.946-6.756,5.542-13.053,10.511-18.046       c9.183-9.229,22.603-13.443,35.611-13.237c13.03,0.206,25.694,4.489,37.351,10.282c10.443-12.343,27.572-18.275,43.626-16.099       c6.298,0.87,12.366,2.954,18.297,5.221c7.122,2.725,14.222,5.748,20.359,10.26c0.183,0.137,0.366,0.275,0.549,0.412       c0.527,0.389,1.054,0.801,1.58,1.214C319.015,63.403,325.45,73.594,330.74,83.968z"/>
					<g style="opacity:0.4;">
						<path style="fill:#FFB6F1;" d="M313.657,87.403l-0.39,0.412c-7.443-7.214-18.526-8.657-27.366-9.092        c-8.68-0.435-21.183-0.16-29.313,7.397c-4.076,3.779-6.595,8.931-9.023,13.924c-0.435,0.893-0.847,1.786-1.305,2.679        c-2.68,5.359-6.55,11.863-12.847,14.725c-6.71,3.046-14.267,1.42-21.572-0.16l-0.893-0.206        c-7.351-1.58-15.664-2.588-21.687,1.832c-5.611,4.122-7.282,11.427-8.908,18.504c-0.115,0.596-0.252,1.168-0.389,1.741        c-2.771,11.931-6.985,21.023-12.87,27.755c-5.359,6.137-12.412,10.259-19.534,11.657c-0.137-0.16-0.275-0.344-0.389-0.504        c7.099-1.305,14.153-5.381,19.488-11.519c5.817-6.664,9.985-15.664,12.756-27.527c0.137-0.573,0.252-1.145,0.389-1.718        c1.626-7.191,3.321-14.588,9.114-18.847c6.206-4.557,14.68-3.55,22.145-1.924l0.893,0.183        c7.237,1.557,14.68,3.183,21.206,0.206c6.137-2.771,9.962-9.183,12.595-14.473c0.435-0.87,0.87-1.763,1.305-2.656        c2.45-5.038,4.992-10.259,9.137-14.084c8.29-7.695,20.954-8.015,29.725-7.557C294.855,78.609,306.076,80.052,313.657,87.403z"/>
						<path style="fill:#FFB6F1;" d="M327.351,79.663l-0.298,0.481c-14.153-9.183-31.878-13.259-48.618-11.244        s-32.977,10.236-44.519,22.534c-0.641,0.687-1.282,1.397-1.901,2.084c-2.634,2.908-5.336,5.885-8.771,7.832        c-6.893,3.847-15.366,2.817-22.717,1.328c-0.847-0.183-1.672-0.367-2.519-0.55c-6.664-1.397-13.557-2.863-20.13-1.305        c-10.946,2.61-17.908,12.641-21.801,20.588c-1.855,3.756-3.435,7.763-4.97,11.611c-2.244,5.679-4.58,11.565-7.832,16.878        c-2.038,3.321-4.764,6.71-8.061,9.504c-0.091-0.183-0.183-0.366-0.275-0.527c3.183-2.725,5.863-6.046,7.855-9.275        c3.206-5.267,5.542-11.129,7.786-16.786c1.534-3.87,3.114-7.878,4.969-11.656c3.962-8.061,11.038-18.229,22.191-20.885        c6.71-1.603,13.649-0.115,20.382,1.305c0.847,0.183,1.672,0.367,2.519,0.527c7.26,1.488,15.572,2.496,22.305-1.26        c3.367-1.901,6.046-4.855,8.634-7.718c0.641-0.687,1.282-1.397,1.924-2.084c11.633-12.389,27.984-20.679,44.862-22.717        C295.244,66.266,313.107,70.411,327.351,79.663z"/>
						<path style="fill:#FFB6F1;" d="M310.015,56.075c-0.366-0.16-0.733-0.298-1.122-0.435c-10.328-3.802-21.504-3.962-31.099-3.641        c-9.618,0.343-19.717,1.328-28.191,6.343c-4.282,2.542-8.267,6.16-12.137,11.061c-0.344,0.458-0.71,0.916-1.076,1.374        c-2.908,3.778-5.931,7.695-10.511,8.908c-2.45,0.641-5.222,0.481-8.748-0.527c-4.443-1.259-8.656-3.321-12.733-5.336        c-3.962-1.947-8.061-3.962-12.344-5.221c-17.244-5.038-37.717,3.984-45.595,20.152c-0.55,1.099-1.054,2.267-1.534,3.389        c-0.87,2.015-1.763,4.099-2.954,5.977c-0.16,0.275-0.343,0.526-0.526,0.778c-0.046-0.252-0.115-0.526-0.137-0.801        c0.068-0.092,0.115-0.183,0.183-0.275c1.168-1.855,2.061-3.916,2.908-5.909c0.481-1.122,0.985-2.29,1.535-3.412        c8.015-16.397,28.786-25.58,46.282-20.45c4.351,1.282,8.45,3.298,12.435,5.267c4.054,1.992,8.244,4.053,12.618,5.29        c3.435,0.985,6.137,1.145,8.473,0.527c4.374-1.168,7.328-4.992,10.191-8.702c0.366-0.481,0.733-0.939,1.099-1.397        c3.916-4.947,7.924-8.611,12.275-11.176c8.588-5.084,18.779-6.092,28.466-6.435c9.435-0.321,20.428-0.161,30.664,3.435        C308.962,55.25,309.489,55.663,310.015,56.075z"/>
					</g>
				</g>
			</g>
			<g>
				<path style="fill:#F590AE;" d="M34.954,262.836c0,0-11.791-21.829-12.961-39.954c0,0-16.664-15.202-2.631-25.434      c0,0-5.262-18.126,15.202-17.249c0,0-0.292-16.956,17.541-14.325c0,0-0.585-14.033,9.94-13.448      c10.524,0.585,11.402,5.262,11.402,5.262l6.432,21.634c0,0,7.893-8.478,19.295,0.292c11.402,8.77,6.139,31.379,4.19,37.81      c-1.441,4.756-6.627,21.439-6.627,21.439L34.954,262.836z"/>
				<g>
					<g>
						<polygon style="fill:#FFE2B5;" points="93.971,85.479 120.902,94.823 73.225,237.204 46.32,228.205       "/>
						<polygon style="fill:#FFB6F1;" points="46.316,228.198 55.133,219.133 60.917,229.088 71.968,224.764 73.233,237.2         62.459,245.887 55.108,246.73 49.812,241.446       "/>
						<path style="fill:#4C226C;" d="M49.812,241.446c0.046-0.05,0.086-0.085,0.14-0.115c2.894-2.036,6.779-1.759,9.352,0.368        c1.532,1.259,2.571,2.694,3.156,4.189l-9.466,7.63L49.812,241.446z"/>
						<path style="fill:#4C226C;" d="M70.972,225.899c-0.038,0-0.077-0.006-0.115-0.019c-0.19-0.064-0.293-0.269-0.229-0.46        l44.279-131.969c0.065-0.191,0.267-0.3,0.46-0.229c0.19,0.064,0.293,0.269,0.229,0.46L71.317,225.651        C71.265,225.803,71.124,225.899,70.972,225.899z"/>
						<path style="fill:#4C226C;" d="M55.472,220.714c-0.038,0-0.077-0.006-0.115-0.019c-0.19-0.064-0.293-0.269-0.229-0.46        L99.023,88.579c0.063-0.19,0.267-0.297,0.46-0.229c0.19,0.064,0.293,0.269,0.229,0.46L55.816,220.466        C55.766,220.618,55.624,220.714,55.472,220.714z"/>
					</g>
					<g>
						<path style="fill:#FFB6F1;" d="M120.902,94.823c0,0-7.649,6.733-16.992,3.801c-9.366-2.908-9.939-13.145-9.939-13.145        l7.053,2.451l11.977,4.145L120.902,94.823z"/>
						<path style="fill:#5D3080;" d="M113.001,92.075c-0.527,0.687-1.168,1.282-1.924,1.74c-2.313,1.397-5.496,1.053-7.557-0.687        c-1.512-1.282-2.405-3.229-2.496-5.198L113.001,92.075z"/>
					</g>
				</g>
				<path style="fill:#F590AE;" d="M34.564,180.199c0,0,7.406,36.056,24.168,27.481c0,0,5.457-5.457,4.677-14.033      c0,0,3.703,3.898,11.499-2.144c7.796-6.042,2.534-27.676,1.364-30.599c-1.17-2.924-5.652-6.432-5.652-6.432l-12.863,0.974      l-3.898,12.084L34.564,180.199z"/>
				<path style="fill:#F590AE;" d="M93.911,176.545c0,0-19.003,0.146-21.634,11.255c-2.631,11.109,14.91,14.325,14.91,14.325      L93.911,176.545z"/>
				<g>
					<path style="fill:#4C226C;" d="M94.204,204.174c-0.031,0-0.063-0.002-0.094-0.008c-3.611-0.59-7.21-1.442-10.698-2.53       c-3.623-1.13-8.654-3.142-10.508-7.548c-1.299-3.092-0.75-6.953,1.434-10.077c1.775-2.538,4.532-4.598,8.197-6.123       c3.583-1.487,7.582-2.251,11.397-2.264c0.316,0,0.571,0.257,0.571,0.574c0,0.315-0.257,0.571-0.573,0.571       c-0.004-0.007-0.027,0-0.041,0c-3.711,0-7.484,0.753-10.915,2.177c-3.461,1.439-6.051,3.365-7.698,5.721       c-1.961,2.806-2.466,6.246-1.317,8.978c1.668,3.966,6.388,5.837,9.793,6.898c3.436,1.072,6.983,1.912,10.542,2.495       c0.312,0.05,0.523,0.346,0.472,0.657C94.722,203.975,94.479,204.174,94.204,204.174z"/>
					<g>
						<path style="fill:#4C226C;" d="M54.624,208.884c-0.343,0-0.692-0.02-1.046-0.063c-4.628-0.55-9.167-4.689-11.648-8.066        c-3.949-5.377-6.534-12.184-7.899-20.81c-0.049-0.312,0.164-0.606,0.476-0.655c0.299-0.048,0.606,0.163,0.655,0.476        c1.335,8.44,3.851,15.084,7.691,20.311c2.345,3.191,6.595,7.099,10.86,7.606c2.022,0.244,3.858-0.322,5.456-1.669        c3.604-3.042,4.012-8.343,4.005-12.066c0-0.316,0.255-0.574,0.571-0.574h0.001c0.315,0,0.573,0.256,0.573,0.571        c0.007,3.953-0.443,9.594-4.412,12.943C58.335,208.215,56.562,208.884,54.624,208.884z"/>
						<path style="fill:#4C226C;" d="M67.657,195.253c-1.5,0-2.963-0.333-4.143-1.012c-2.605-1.497-4.619-4.438-6.246-7.117        c-3.624-5.969-5.547-13.257-5.717-21.663c-0.007-0.315,0.245-0.577,0.561-0.584c0.331,0.035,0.577,0.245,0.584,0.561        c0.165,8.201,2.033,15.297,5.552,21.09c1.551,2.555,3.457,5.352,5.837,6.719c2.271,1.305,5.765,1.127,8.129-0.414        c0.266-0.171,0.621-0.097,0.793,0.167c0.172,0.265,0.097,0.621-0.167,0.793C71.357,194.76,69.48,195.253,67.657,195.253z"/>
						<path style="fill:#4C226C;" d="M38.493,213.224c-0.019,0-0.037,0-0.055,0c-3.996-0.018-8.161-1.895-11.723-5.286        c-3.148-2.998-5.461-6.702-7.698-10.286c-0.168-0.268-0.086-0.622,0.182-0.788c0.267-0.168,0.621-0.087,0.788,0.182        c2.199,3.522,4.474,7.165,7.517,10.063c3.35,3.189,7.235,4.954,10.938,4.97c0.017,0,0.034,0,0.05,0        c4.259,0,8.185-2.583,9.35-6.157c0.098-0.299,0.416-0.463,0.722-0.367c0.301,0.098,0.464,0.422,0.367,0.722        C47.618,210.31,43.233,213.224,38.493,213.224z"/>
						<path style="fill:#4C226C;" d="M29.101,226.829c-1.815,0-3.605-0.503-5.096-1.532c-0.868-0.598-1.609-1.342-2.327-2.062        c-0.223-0.224-0.223-0.586,0.002-0.81c0.221-0.221,0.586-0.224,0.81,0.002c0.68,0.682,1.383,1.388,2.166,1.928        c2.965,2.046,7.494,1.648,10.311-0.906c2.702-2.451,3.802-6.621,2.74-10.375c-0.086-0.304,0.091-0.621,0.396-0.707        c0.308-0.079,0.621,0.093,0.707,0.396c1.177,4.162-0.057,8.797-3.073,11.533C33.896,225.967,31.477,226.829,29.101,226.829z"/>
					</g>
				</g>
			</g>
			<g>
				<polygon style="fill:#FFE8F9;" points="363.749,304.74 385.382,248.609 454.376,299.477 442.098,342.16     "/>
				<polygon style="fill:#A0AFFF;" points="330.421,273.751 276.629,431.034 412.278,456.176 454.376,299.477     "/>
				<g>
					<path style="fill:#F590AE;" d="M339.501,457.541c0,0-17.067-34.134-8.359-39.01c8.708-4.876,18.975,24.002,18.975,24.002       s-10.267-36.889-1.211-40.721c9.056-3.831,11.92,5.395,11.92,5.395s-1.246-10.856,8.282-12.71       c11.306-2.2,23.108,41.798,23.108,41.798s-9.524-44.933,1.273-47.371c10.797-2.438,23.685,45.279,23.685,45.279l5.225-16.719       c0,0,3.135,23.336,0.348,34.482c-2.786,11.146-61.998,27.168-73.144,19.505C341.278,465.751,339.501,457.541,339.501,457.541z"/>
					<path style="fill:#4C226C;" d="M370.472,442.423c-0.254,0-0.485-0.169-0.553-0.426l-9.355-35.228       c-0.081-0.305,0.101-0.618,0.407-0.7c0.311-0.085,0.618,0.101,0.7,0.407l9.355,35.228c0.081,0.305-0.101,0.618-0.407,0.7       C370.569,442.418,370.52,442.423,370.472,442.423z"/>
				</g>
			</g>
		</g>
		<path style="fill:#A0AFFF;" d="M162.837,417.571H22.41c-0.115-6.458-0.298-12.801-0.756-19.466    c-1.626-22.076-1.786-45.16,1.626-67.076c18.206,3.344,35.084,14.817,42.618,31.855c5.359,12.114,7.466,27.366,18.985,33.893    c10.237,5.771,22.923,1.649,34.672,1.122C136.066,397.143,152.028,405.181,162.837,417.571z"/>
		<g>
			<polygon style="fill:#FFE2B5;" points="442.683,347.034 459.609,331.391 457.933,354.378 480.717,357.859 461.7,370.88      473.184,390.864 451.146,384.114 442.683,405.552 434.219,384.114 412.182,390.864 423.666,370.88 404.649,357.859      427.432,354.378 425.756,331.391    "/>
			<polygon style="fill:#FFE2B5;" points="128.978,249.904 145.905,234.261 144.229,257.248 167.012,260.729 147.995,273.751      159.479,293.734 137.442,286.985 128.978,308.422 120.515,286.985 98.477,293.734 109.961,273.751 90.944,260.729      113.728,257.248 112.051,234.261    "/>
			<g>
				<path style="fill:#F590AE;" d="M463.678,253.945l-8.101-4.543c2.998-7.666-0.025-16.551-7.401-20.689      c-7.377-4.137-16.535-2.084-21.513,4.471l-8.101-4.544c7.504-10.988,22.298-14.602,34.124-7.969      C464.512,227.304,469.142,241.813,463.678,253.945z"/>
			</g>
			<g>
				<path style="fill:#F590AE;" d="M96.565,364.761l4.405,8.177c-6.639,4.866-8.848,13.988-4.837,21.434      c4.011,7.446,12.844,10.619,20.56,7.753l4.405,8.177c-12.223,5.256-26.651,0.38-33.082-11.557      C81.585,386.807,85.451,372.076,96.565,364.761z"/>
			</g>
		</g>
		<g>
			<path style="fill:#FFE8F9;" d="M479.714,297.528c0,4.09-3.316,7.406-7.406,7.406c-4.09,0-7.406-3.316-7.406-7.406     c0-4.09,3.316-7.406,7.406-7.406C476.398,290.122,479.714,293.438,479.714,297.528z"/>
			<path style="fill:#FFE8F9;" d="M194.186,280.962c0,4.09-3.316,7.406-7.406,7.406s-7.406-3.316-7.406-7.406     c0-4.09,3.316-7.406,7.406-7.406S194.186,276.872,194.186,280.962z"/>
			<path style="fill:#FFE8F9;" d="M48.986,316.628c0,4.09-3.316,7.406-7.406,7.406s-7.406-3.316-7.406-7.406     c0-4.09,3.316-7.406,7.406-7.406S48.986,312.538,48.986,316.628z"/>
			<path style="fill:#FFE8F9;" d="M490.238,403.164c0,4.09-3.316,7.406-7.406,7.406c-4.09,0-7.406-3.316-7.406-7.406     c0-4.09,3.316-7.406,7.406-7.406C486.922,395.758,490.238,399.073,490.238,403.164z"/>
			<path style="fill:#FFE8F9;" d="M366.477,256.015c0,4.09-3.316,7.406-7.406,7.406c-4.09,0-7.406-3.316-7.406-7.406     c0-4.09,3.316-7.406,7.406-7.406C363.161,248.609,366.477,251.924,366.477,256.015z"/>
		</g>
	</g>
</g>















</svg>
